<svg xmlns="http://www.w3.org/2000/svg" fill="none" viewBox="0 0 200 48">
  <path fill="#949492" fill-rule="evenodd" d="M103.62 28.78c0 6.44 5.8 10.06 12.41 10.06 6.62 0 12.4-3.62 12.4-10.06s-5.78-10.06-12.4-10.06-12.4 3.62-12.4 10.06Zm12.41-5.87c-3.75 0-6.31 2.72-6.31 5.87s2.56 5.87 6.31 5.87c3.75 0 6.31-2.72 6.31-5.87s-2.56-5.87-6.31-5.87Z" clip-rule="evenodd"/>
  <path fill="#949492" d="M199.09 38.4v-4.3H193c-3.04 0-5.89-1.86-5.89-5.32s2.85-5.33 5.89-5.33h6.09v-4.28h-7.42c-6.34 0-10.83 3.95-10.83 9.61 0 5.66 4.5 9.61 10.83 9.61h7.42ZM55.1 27.98c0-4.7 3.8-8.5 8.5-8.5h11.72v4.96h-9.7a4 4 0 0 0-4 4v18.57H55.1V27.98Zm25.07-5.43c-.65 1.23-.65 2.86-.65 6.1v9.74h5.73v-8.5c0-2.28 0-3.42.45-4.29a4 4 0 0 1 1.7-1.7c.87-.45 2.01-.45 4.29-.45h2.4v14.94h5.72V19.48H88.7c-3.25 0-4.87 0-6.1.64a5.7 5.7 0 0 0-2.43 2.43Zm76.88-3.07h5.53v4.36a3.6 3.6 0 0 0 3.6 3.6h5.54v-7.96h5.7v11.98a7 7 0 0 1-7 7h-9.03V34.2h8.33a2 2 0 0 0 2-2v-.46h-8.17a6.5 6.5 0 0 1-6.5-6.5v-5.75Z"/>
  <path fill="#949492" fill-rule="evenodd" d="M137.7 38.46h-5.23v-9.32c0-3.42 0-5.13.67-6.43a6 6 0 0 1 2.56-2.56c1.3-.67 3.01-.67 6.43-.67h6.4v3.96h-8.08a5 5 0 0 0-.63.02 2 2 0 0 0-1.7 1.7c-.03.14-.03.3-.03.64h9.93a6 6 0 0 1 5.74 6.33l-.01.6a6 6 0 0 1-5.73 5.73h-10.33Zm.4-8.4v4.13h7.52a2.06 2.06 0 0 0 0-4.12h-7.53Z" clip-rule="evenodd"/>
  <path fill="#626260" d="M0 2.39h35.51V37.9H0z"/>
  <path fill="#F79122" fill-rule="evenodd" d="M25.06 47.01c11.17 0 20.2-9.02 20.2-20.2a20.18 20.18 0 0 0-20.2-20.19 20.17 20.17 0 0 0-20.2 20.2A20.18 20.18 0 0 0 25.07 47Zm.2-14.65h3.78l-.08-9.5h6.49l.05 15.04H24.6c-7.83 0-12.29-4.93-12.29-11.14 0-6.21 4.46-11.14 12.29-11.14l10.91.03v5.51H25.25c-4.28 0-5.96 2.9-5.96 5.6 0 2.7 1.68 5.6 5.96 5.6Z" clip-rule="evenodd"/>
  <path fill="#626260" fill-rule="evenodd" d="M135.48 2.39h11.07v1.89h-8.88v2.47h6.07c.98 0 1.47 0 1.86.15a2.2 2.2 0 0 1 1.24 1.24c.15.4.15.88.15 1.86 0 1.07 0 1.6-.16 2.03a2.4 2.4 0 0 1-1.36 1.35c-.42.17-.96.17-2.02.17h-7.97V2.39Zm7.81 6.25c.48 0 .72 0 .9.08.24.1.43.3.53.53.08.19.08.42.08.9 0 .48 0 .71-.08.9a1 1 0 0 1-.53.53c-.18.08-.42.08-.9.08h-5.62V8.64h5.62Z" clip-rule="evenodd"/>
  <path fill="#626260" d="M180.43 2.46v11.16h-2.2v-5h-8.1v5h-2.2V2.46h2.2V6.8h8.1V2.46h2.2Zm7.99 6.41v4.72h-2.2V2.43h2.2v4.5l6.55-4.5h3.24l-8 5.4L199 13.6l-3.5.03-7.08-4.75Z"/>
  <path fill="#626260" fill-rule="evenodd" d="M153.59 10.94h6.96l1.4 2.61h2.36L158.18 2.4h-2.17l-6.1 11.13 2.25.03 1.43-2.61Zm6-1.81h-5.02l2.54-4.65 2.48 4.65Z" clip-rule="evenodd"/>
</svg>