<?xml version="1.0" encoding="UTF-8"?><svg id="_Слой_1" xmlns="http://www.w3.org/2000/svg" viewBox="0 0 405.17 77.41"><g><path d="M179.64,47.22V28.2l22.78-.03v-7.29l-14.56-.06c-1.76,0-3.13,0-3.77,.01-3.23,.03-4.45,1.35-4.45,1.35V7.56h28.73s0-7.4,0-7.4h-35.39V51.07h35.39v-8.25h-23.34c-3.92,0-5.39,4.4-5.39,4.4Z"/><path d="M376.44,47.22V28.2l22.78-.03v-7.29l-14.56-.06c-1.76,0-3.13,0-3.77,.01-3.23,.03-4.45,1.35-4.45,1.35V7.56h28.73s0-7.4,0-7.4h-35.39V51.07h35.39v-8.25h-23.34c-3.92,0-5.39,4.4-5.39,4.4Z"/><path d="M110.01,7.37c-2.26-2.27-4.95-4.03-8.07-5.31-3.13-1.27-6.55-1.91-10.26-1.91s-7.13,.64-10.26,1.91c-3.13,1.27-5.82,3.04-8.07,5.31-2.26,2.27-4.02,4.95-5.29,8.05-1.27,3.1-1.9,6.5-1.9,10.2s.63,7.04,1.9,10.16c1.27,3.12,3.04,5.82,5.32,8.08,2.28,2.27,4.98,4.03,8.11,5.31,3.13,1.27,6.52,1.91,10.19,1.91s7.06-.64,10.19-1.91c3.13-1.27,5.83-3.04,8.11-5.31,2.28-2.27,4.05-4.96,5.32-8.08,1.27-3.12,1.9-6.51,1.9-10.16s-.63-7.1-1.9-10.2c-1.27-3.1-3.03-5.78-5.29-8.05Zm-2.04,25.53c-.89,2.22-2.12,4.14-3.67,5.76-1.55,1.62-3.41,2.88-5.57,3.78-2.16,.9-4.51,1.35-7.05,1.35h0c-2.54,0-4.89-.45-7.05-1.35-2.16-.9-4.02-2.16-5.57-3.78-1.55-1.62-2.77-3.54-3.67-5.76-.89-2.22-1.34-4.65-1.34-7.28s.45-5.06,1.34-7.28c.89-2.22,2.12-4.14,3.67-5.76,1.55-1.62,3.41-2.88,5.57-3.78,2.16-.9,4.51-1.35,7.05-1.35h0c2.54,0,4.89,.45,7.05,1.35,2.16,.9,4.02,2.16,5.57,3.78,1.55,1.62,2.77,3.54,3.67,5.76,.89,2.22,1.34,4.65,1.34,7.28s-.45,5.06-1.34,7.28Z"/><path d="M136.56,47.22L136.78,.04h-7.73V51.07h32.72v-7.4h-17.91c-5.17,0-6.71,3.23-7.29,3.56Z"/><path d="M334.73,47.22l.21-47.07h-7.73V51.07h32.72v-7.4h-17.91c-5.17,0-6.71,3.23-7.29,3.56Z"/><path d="M256.89,39.14c-1.18,.88-2.47,1.66-3.88,2.36-1.41,.69-2.93,1.25-4.55,1.66-1.62,.42-3.28,.62-4.97,.62-2.77,0-5.28-.44-7.51-1.32-2.23-.88-4.12-2.12-5.68-3.71-1.55-1.6-2.75-3.5-3.6-5.72-.85-2.22-1.27-4.69-1.27-7.42s.43-5.07,1.3-7.32c.87-2.24,2.12-4.16,3.74-5.76,1.62-1.6,3.56-2.84,5.82-3.75,2.26-.9,4.75-1.35,7.47-1.35,3.1,0,5.81,.6,8.11,1.8,2.3,1.2,4.28,2.89,5.92,5.06l6.06-5.2c-2.16-2.82-4.96-5.02-8.39-6.59-3.43-1.57-7.36-2.36-11.78-2.36-3.62,0-7.02,.59-10.19,1.77-3.17,1.18-5.95,2.87-8.32,5.06-2.37,2.2-4.25,4.87-5.64,8.01-1.39,3.15-2.08,6.68-2.08,10.61s.65,7.68,1.94,10.82c1.29,3.14,3.1,5.8,5.43,7.98,2.33,2.17,5.08,3.83,8.25,4.96,3.17,1.13,6.64,1.7,10.4,1.7,2.3,0,4.55-.24,6.73-.73s4.2-1.12,6.03-1.91c1.83-.79,3.43-1.69,4.79-2.71,1.36-1.02,2.37-2.06,3.03-3.12l-4.3-6.24c-.75,.97-1.72,1.9-2.89,2.77Z"/><path d="M308.22,31.1c0,4.12-1.2,7.26-3.6,9.43-2.4,2.17-5.6,3.26-9.59,3.26s-7.19-1.09-9.59-3.26c-2.4-2.17-3.6-5.32-3.6-9.43V0h-7.76V31.3c0,3.01,.48,5.73,1.45,8.18,.96,2.45,2.34,4.53,4.12,6.24,1.79,1.71,3.97,3.03,6.56,3.95,2.58,.92,5.52,1.39,8.81,1.39s6.23-.46,8.81-1.39c2.58-.92,4.78-2.24,6.59-3.95,1.81-1.71,3.18-3.79,4.12-6.24,.94-2.45,1.41-5.18,1.41-8.18V0h-7.76V31.1Z"/><path d="M39.29,8.88c-3.34,11.7-9.25,32.45-9.45,33.73h-1.84s0,0,0,0h-.83s-.03,0-.03,0h-.84c-.2-1.28-6.11-22.03-9.45-33.73C15.52,4.22,14.6,.04,14.6,.04H0V51.07H7.76V18.96l-.05-2.55c0-5.39-2.38-6.99-2.72-7.59l4.41,.02c.15,.57,.31,1.19,.48,1.89,.23,.94,.61,2.23,1.13,3.88l11.21,36.46h11.71L45.14,14.61c.52-1.65,.89-2.94,1.13-3.88,.18-.7,.33-1.32,.48-1.89l4.58-.02c-.35,.6-2.9,2.2-2.9,7.59l-.05,2.55V51.07h7.76V.04h-14.6s-.92,4.19-2.25,8.84Z"/></g><g><path d="M42.16,72.69v-8.53h7.77v8.53h-1.58v-7.25h-4.61v7.25h-1.58Z"/><path d="M56.23,70.22c0-.54,.17-1.02,.51-1.41,.34-.4,.81-.71,1.41-.92s1.29-.33,2.08-.33c.42,0,.86,.03,1.33,.09,.47,.06,.88,.15,1.24,.27v-.62c0-.65-.21-1.16-.65-1.53s-1.04-.56-1.83-.56c-.51,0-1.01,.08-1.48,.25-.47,.17-.97,.41-1.5,.73l-.57-1.02c.61-.38,1.22-.67,1.83-.86s1.24-.29,1.9-.29c1.2,0,2.14,.3,2.83,.91,.69,.6,1.04,1.44,1.04,2.52v3.6c0,.17,.04,.3,.12,.38,.08,.08,.21,.13,.39,.14v1.12c-.16,.02-.29,.04-.4,.05-.11,.01-.21,.02-.28,.02-.37,0-.65-.09-.83-.28s-.29-.38-.31-.59l-.04-.54c-.41,.48-.94,.86-1.6,1.12-.66,.26-1.31,.39-1.96,.39s-1.18-.12-1.67-.35c-.49-.23-.87-.55-1.15-.95-.28-.4-.41-.84-.41-1.33Zm6.1,.6c.14-.15,.26-.31,.34-.46,.08-.16,.13-.29,.13-.4v-1.06c-.37-.13-.76-.23-1.17-.3s-.81-.11-1.2-.11c-.8,0-1.45,.14-1.95,.43-.5,.29-.74,.68-.74,1.18,0,.27,.08,.53,.24,.79,.16,.26,.4,.46,.72,.63s.71,.24,1.18,.24c.49,0,.96-.09,1.4-.27,.44-.18,.8-.4,1.06-.68Z"/><path d="M76.43,72.85c-.77,0-1.45-.17-2.05-.52-.6-.35-1.07-.79-1.42-1.32v5.18h-1.58v-12.04h1.4v1.61c.37-.52,.85-.94,1.45-1.26,.6-.32,1.25-.48,1.96-.48,.65,0,1.24,.12,1.78,.36,.54,.24,1,.57,1.4,.98,.39,.41,.7,.88,.92,1.41s.33,1.08,.33,1.66c0,.81-.18,1.54-.53,2.22s-.85,1.21-1.48,1.61c-.63,.4-1.36,.59-2.19,.59Zm-.48-1.25c.47,0,.89-.09,1.26-.27s.7-.42,.97-.72c.27-.3,.48-.64,.62-1.02s.22-.77,.22-1.17c0-.42-.08-.82-.24-1.2-.16-.38-.39-.72-.68-1.01-.29-.29-.63-.52-1.02-.69s-.81-.25-1.26-.25c-.29,0-.58,.05-.89,.15-.31,.1-.6,.24-.87,.41-.27,.18-.51,.38-.7,.61s-.32,.47-.38,.73v2.43c.18,.37,.42,.7,.72,1.01,.3,.3,.65,.54,1.04,.72,.39,.18,.8,.27,1.22,.27Z"/><path d="M91.38,76.19v-3.5h-.36c-.95,0-1.76-.2-2.45-.59-.69-.39-1.22-.91-1.59-1.56-.37-.64-.56-1.35-.56-2.11s.19-1.48,.56-2.13c.38-.64,.91-1.16,1.6-1.56,.69-.39,1.5-.59,2.43-.59h.36v-3.47h1.58v3.47h.38c.93,0,1.74,.2,2.43,.59,.69,.39,1.22,.91,1.6,1.56,.38,.64,.56,1.35,.56,2.13s-.19,1.47-.56,2.11c-.37,.64-.9,1.16-1.59,1.56-.69,.39-1.5,.59-2.45,.59h-.38v3.5h-1.58Zm-.36-4.69h.43v-6.17h-.43c-.59,0-1.11,.14-1.57,.42-.46,.28-.82,.65-1.09,1.12s-.39,.99-.39,1.57,.13,1.1,.39,1.56c.26,.46,.61,.83,1.07,1.1,.45,.27,.99,.4,1.6,.4Zm1.87,0h.45c.6,0,1.13-.13,1.59-.4,.46-.27,.82-.63,1.08-1.1,.26-.46,.39-.98,.39-1.56s-.13-1.1-.39-1.57c-.26-.47-.62-.84-1.08-1.12-.45-.28-.98-.42-1.58-.42h-.45v6.17Z"/><path d="M112.06,72.85c-.83,0-1.56-.16-2.19-.49-.63-.33-1.14-.77-1.53-1.34s-.62-1.22-.7-1.95h-1.74v3.62h-1.58v-8.53h1.58v3.65h1.74c.1-.75,.34-1.41,.73-1.98s.9-1.01,1.53-1.33c.63-.31,1.35-.47,2.15-.47,.94,0,1.76,.2,2.44,.6,.68,.4,1.21,.93,1.58,1.59,.37,.66,.56,1.41,.56,2.24s-.19,1.61-.57,2.27c-.38,.66-.91,1.19-1.6,1.57-.69,.38-1.49,.57-2.41,.57Zm0-1.25c.59,0,1.1-.14,1.54-.41,.44-.27,.79-.64,1.04-1.11s.38-1.02,.38-1.64c0-.65-.13-1.21-.39-1.68-.26-.47-.61-.84-1.06-1.1-.45-.26-.95-.39-1.52-.39s-1.06,.13-1.5,.4-.77,.64-1.01,1.11c-.24,.48-.36,1.03-.36,1.66s.12,1.2,.37,1.68c.25,.48,.59,.84,1.02,1.1,.44,.25,.93,.38,1.48,.38Z"/><path d="M123.03,72.69v-8.53h1.63l3.48,5.59,3.5-5.59h1.6v8.53h-1.51v-6.46l-3.09,4.94h-1l-3.1-4.94v6.46h-1.51Z"/><path d="M144.41,72.85c-.71,0-1.35-.12-1.93-.35s-1.08-.55-1.51-.96c-.42-.41-.75-.88-.99-1.41-.23-.53-.35-1.1-.35-1.7,0-.8,.2-1.54,.61-2.2,.41-.66,.97-1.2,1.7-1.6,.72-.4,1.55-.6,2.48-.6s1.77,.2,2.47,.61c.7,.41,1.24,.94,1.63,1.6,.39,.66,.58,1.37,.58,2.13,0,.11,0,.21,0,.32,0,.1-.02,.18-.03,.24h-7.77c.05,.55,.22,1.04,.51,1.47,.29,.43,.67,.76,1.14,1.01,.47,.24,.97,.37,1.51,.37,.57,0,1.12-.13,1.62-.39s.86-.61,1.05-1.04l1.36,.35c-.2,.42-.51,.79-.91,1.12-.4,.33-.87,.59-1.42,.77-.54,.19-1.13,.28-1.77,.28Zm-3.16-4.93h6.39c-.05-.55-.22-1.04-.52-1.46-.3-.42-.68-.75-1.15-.99-.47-.24-.98-.36-1.54-.36s-1.06,.12-1.52,.36c-.47,.24-.85,.57-1.14,.99s-.46,.91-.51,1.46Z"/><path d="M160.4,72.85c-.77,0-1.45-.17-2.05-.52-.6-.35-1.07-.79-1.42-1.32v5.18h-1.58v-12.04h1.4v1.61c.37-.52,.85-.94,1.45-1.26,.6-.32,1.25-.48,1.96-.48,.65,0,1.24,.12,1.78,.36,.54,.24,1,.57,1.4,.98,.39,.41,.7,.88,.92,1.41,.22,.53,.33,1.08,.33,1.66,0,.81-.18,1.54-.53,2.22-.35,.67-.85,1.21-1.48,1.61-.63,.4-1.36,.59-2.19,.59Zm-.48-1.25c.47,0,.89-.09,1.27-.27,.38-.18,.7-.42,.97-.72,.27-.3,.48-.64,.62-1.02s.21-.77,.21-1.17c0-.42-.08-.82-.24-1.2-.16-.38-.39-.72-.68-1.01s-.63-.52-1.02-.69c-.39-.17-.81-.25-1.26-.25-.29,0-.58,.05-.89,.15-.31,.1-.6,.24-.87,.41-.27,.18-.51,.38-.7,.61s-.32,.47-.38,.73v2.43c.18,.37,.42,.7,.72,1.01,.3,.3,.65,.54,1.04,.72,.39,.18,.8,.27,1.22,.27Z"/><path d="M171,72.69v-8.52h1.58v6.59l5.24-6.6h1.44v8.53h-1.58v-6.46l-5.17,6.46h-1.51Z"/><path d="M185.57,72.69l2.66-3.44c-.61-.11-1.1-.37-1.47-.79-.37-.42-.56-.98-.56-1.69,0-.51,.13-.96,.39-1.35,.26-.39,.63-.7,1.1-.93,.47-.23,1.03-.34,1.66-.34h3.84v8.53h-1.58v-3.21h-1.83l-2.48,3.21h-1.74Zm3.89-4.27h2.15v-3.12h-1.97c-.56,0-1.01,.14-1.35,.43-.33,.29-.5,.65-.5,1.09s.14,.82,.42,1.13c.28,.31,.7,.47,1.25,.47Z"/><path d="M209.24,72.69v-8.52h1.58v6.59l5.24-6.6h1.44v8.53h-1.58v-6.46l-5.17,6.46h-1.51Z"/><path d="M233.51,72.69v-8.53h1.58v3.5h1.04l2.94-3.5h1.79l-3.5,4.13,3.91,4.41h-1.83l-3.32-3.7h-1.04v3.7h-1.58Z"/><path d="M250.94,72.85c-.71,0-1.35-.12-1.92-.35s-1.07-.55-1.49-.96c-.42-.41-.74-.88-.97-1.41-.23-.53-.34-1.09-.34-1.68s.11-1.16,.34-1.7c.23-.53,.55-1,.97-1.41,.42-.41,.92-.73,1.5-.96,.58-.23,1.22-.35,1.91-.35s1.35,.12,1.92,.35c.57,.23,1.07,.55,1.5,.96,.42,.41,.75,.88,.98,1.41,.23,.53,.34,1.1,.34,1.7s-.11,1.15-.34,1.68c-.23,.53-.55,1-.97,1.41-.42,.41-.92,.73-1.5,.96-.58,.23-1.22,.35-1.93,.35Zm-3.1-4.39c0,.59,.14,1.12,.42,1.59,.28,.48,.65,.85,1.12,1.13s.99,.42,1.56,.42,1.1-.14,1.57-.42c.47-.28,.85-.67,1.13-1.15,.28-.48,.42-1.02,.42-1.6s-.14-1.12-.42-1.59c-.28-.48-.66-.86-1.13-1.14s-1-.42-1.57-.42-1.09,.14-1.56,.43c-.47,.29-.84,.67-1.12,1.15-.28,.48-.42,1.01-.42,1.61Z"/><path d="M266.22,72.85c-.71,0-1.35-.12-1.93-.35-.58-.23-1.08-.56-1.51-.97-.42-.41-.75-.89-.99-1.42s-.35-1.1-.35-1.7c0-.81,.2-1.54,.59-2.2,.39-.66,.95-1.19,1.67-1.59,.72-.4,1.55-.6,2.49-.6s1.73,.19,2.41,.57c.69,.38,1.2,.89,1.53,1.52l-1.54,.44c-.24-.41-.57-.72-1-.95s-.91-.34-1.43-.34c-.57,0-1.1,.14-1.57,.41-.47,.27-.85,.64-1.12,1.12-.28,.47-.41,1.01-.41,1.62s.14,1.14,.42,1.62c.28,.48,.66,.87,1.13,1.15,.47,.28,1,.42,1.57,.42,.37,0,.73-.06,1.07-.18,.34-.12,.64-.28,.9-.49,.26-.2,.43-.42,.53-.67l1.54,.43c-.19,.42-.48,.79-.87,1.11s-.85,.58-1.38,.76-1.12,.28-1.75,.28Z"/><path d="M276.49,72.69v-8.53h1.63l3.48,5.59,3.5-5.59h1.6v8.53h-1.51v-6.46l-3.09,4.94h-1l-3.1-4.94v6.46h-1.51Z"/><path d="M297.87,72.85c-.71,0-1.35-.12-1.93-.35-.58-.23-1.08-.55-1.51-.96s-.75-.88-.99-1.41c-.23-.53-.35-1.1-.35-1.7,0-.8,.2-1.54,.61-2.2,.41-.66,.97-1.2,1.7-1.6,.72-.4,1.55-.6,2.49-.6s1.77,.2,2.47,.61c.7,.41,1.24,.94,1.63,1.6,.39,.66,.58,1.37,.58,2.13,0,.11,0,.21,0,.32s-.01,.18-.03,.24h-7.77c.05,.55,.22,1.04,.51,1.47,.29,.43,.67,.76,1.14,1.01,.47,.24,.97,.37,1.51,.37,.57,0,1.12-.13,1.62-.39,.51-.26,.86-.61,1.05-1.04l1.36,.35c-.2,.42-.51,.79-.91,1.12-.4,.33-.87,.59-1.42,.77-.54,.19-1.13,.28-1.77,.28Zm-3.16-4.93h6.39c-.05-.55-.22-1.04-.52-1.46s-.68-.75-1.15-.99c-.47-.24-.98-.36-1.54-.36s-1.06,.12-1.53,.36c-.47,.24-.85,.57-1.14,.99-.29,.42-.46,.91-.51,1.46Z"/><path d="M311.1,72.69v-7.25h-3.23v-1.28h8.04v1.28h-3.23v7.25h-1.58Z"/><path d="M321.95,72.69v-8.52h1.58v6.59l5.24-6.6h1.44v8.53h-1.58v-6.46l-5.17,6.46h-1.51Z"/><path d="M337.2,72.69v-8.53h1.58v3.5h1.04l2.94-3.5h1.79l-3.5,4.13,3.91,4.41h-1.83l-3.32-3.7h-1.04v3.7h-1.58Z"/><path d="M350.28,70.22c0-.54,.17-1.02,.51-1.41s.81-.71,1.41-.92c.6-.22,1.29-.33,2.08-.33,.42,0,.86,.03,1.33,.09,.47,.06,.88,.15,1.24,.27v-.62c0-.65-.22-1.16-.65-1.53s-1.04-.56-1.83-.56c-.51,0-1.01,.08-1.48,.25-.47,.17-.97,.41-1.5,.73l-.57-1.02c.61-.38,1.22-.67,1.83-.86,.61-.19,1.24-.29,1.9-.29,1.2,0,2.14,.3,2.83,.91,.69,.6,1.04,1.44,1.04,2.52v3.6c0,.17,.04,.3,.12,.38,.08,.08,.21,.13,.39,.14v1.12c-.16,.02-.29,.04-.4,.05-.11,.01-.21,.02-.28,.02-.37,0-.65-.09-.83-.28s-.29-.38-.31-.59l-.04-.54c-.41,.48-.94,.86-1.6,1.12-.66,.26-1.31,.39-1.96,.39s-1.18-.12-1.67-.35c-.49-.23-.87-.55-1.15-.95-.28-.4-.41-.84-.41-1.33Zm6.1,.6c.14-.15,.26-.31,.34-.46,.08-.16,.13-.29,.13-.4v-1.06c-.37-.13-.76-.23-1.17-.3-.41-.07-.81-.11-1.2-.11-.8,0-1.45,.14-1.95,.43-.5,.29-.74,.68-.74,1.18,0,.27,.08,.53,.24,.79,.16,.26,.4,.46,.72,.63,.32,.16,.71,.24,1.18,.24,.49,0,.96-.09,1.4-.27,.44-.18,.79-.4,1.06-.68Z"/></g></svg>