<?xml version="1.0" encoding="utf-8"?>
<!-- Generator: Adobe Illustrator 25.2.3, SVG Export Plug-In . SVG Version: 6.00 Build 0)  -->
<svg version="1.1" id="Слой_1" xmlns="http://www.w3.org/2000/svg" xmlns:xlink="http://www.w3.org/1999/xlink" x="0px" y="0px"
	 viewBox="0 0 240 65" style="enable-background:new 0 0 240 65;" xml:space="preserve">
<style type="text/css">
	.st0{fill:#BBBBBB;}
</style>
<g>
	<g>
		<path class="st0" d="M107.2,37.6V27l12.7,0v-4.1l-8.1,0c-1,0-1.7,0-2.1,0c-1.8,0-2.5,0.8-2.5,0.8v-8.1h16v-4.1h-19.7v28.3h19.7
			v-4.6h-13C108.1,35.1,107.2,37.6,107.2,37.6z"/>
		<path class="st0" d="M216.7,37.6V27l12.7,0v-4.1l-8.1,0c-1,0-1.7,0-2.1,0c-1.8,0-2.5,0.8-2.5,0.8v-8.1h16v-4.1H213v28.3h19.7v-4.6
			h-13C217.5,35.1,216.7,37.6,216.7,37.6L216.7,37.6z"/>
		<path class="st0" d="M68.5,15.4c-1.3-1.3-2.8-2.2-4.5-3c-1.7-0.7-3.6-1.1-5.7-1.1s-4,0.4-5.7,1.1c-1.7,0.7-3.2,1.7-4.5,3
			c-1.3,1.3-2.2,2.8-2.9,4.5c-0.7,1.7-1.1,3.6-1.1,5.7s0.4,3.9,1.1,5.6c0.7,1.7,1.7,3.2,3,4.5c1.3,1.3,2.8,2.2,4.5,3
			c1.7,0.7,3.6,1.1,5.7,1.1s3.9-0.4,5.7-1.1c1.7-0.7,3.2-1.7,4.5-3c1.3-1.3,2.3-2.8,3-4.5c0.7-1.7,1.1-3.6,1.1-5.6s-0.4-3.9-1.1-5.7
			S69.8,16.7,68.5,15.4z M67.4,29.6c-0.5,1.2-1.2,2.3-2,3.2c-0.9,0.9-1.9,1.6-3.1,2.1c-1.2,0.5-2.5,0.8-3.9,0.8l0,0
			c-1.4,0-2.7-0.3-3.9-0.8c-1.2-0.5-2.2-1.2-3.1-2.1c-0.9-0.9-1.5-2-2-3.2c-0.5-1.2-0.7-2.6-0.7-4s0.3-2.8,0.7-4
			c0.5-1.2,1.2-2.3,2-3.2c0.9-0.9,1.9-1.6,3.1-2.1c1.2-0.5,2.5-0.8,3.9-0.8l0,0c1.4,0,2.7,0.3,3.9,0.8s2.2,1.2,3.1,2.1
			c0.9,0.9,1.5,2,2,3.2c0.5,1.2,0.7,2.6,0.7,4S67.9,28.4,67.4,29.6z"/>
		<path class="st0" d="M83.3,37.6l0.1-26.2h-4.3v28.4h18.2v-4.1h-10C84.5,35.6,83.6,37.4,83.3,37.6L83.3,37.6z"/>
		<path class="st0" d="M193.5,37.6l0.1-26.2h-4.3v28.3h18.2v-4.1h-10C194.7,35.6,193.8,37.4,193.5,37.6L193.5,37.6z"/>
		<path class="st0" d="M150.2,33.1c-0.7,0.5-1.4,0.9-2.2,1.3c-0.8,0.4-1.6,0.7-2.5,0.9c-0.9,0.2-1.8,0.3-2.8,0.3
			c-1.5,0-2.9-0.2-4.2-0.7c-1.2-0.5-2.3-1.2-3.2-2.1c-0.9-0.9-1.5-1.9-2-3.2c-0.5-1.2-0.7-2.6-0.7-4.1s0.2-2.8,0.7-4.1
			c0.5-1.2,1.2-2.3,2.1-3.2c0.9-0.9,2-1.6,3.2-2.1c1.3-0.5,2.6-0.8,4.2-0.8c1.7,0,3.2,0.3,4.5,1c1.3,0.7,2.4,1.6,3.3,2.8l3.4-2.9
			c-1.2-1.6-2.8-2.8-4.7-3.7c-1.9-0.9-4.1-1.3-6.6-1.3c-2,0-3.9,0.3-5.7,1c-1.8,0.7-3.3,1.6-4.6,2.8c-1.3,1.2-2.4,2.7-3.1,4.5
			c-0.8,1.8-1.2,3.7-1.2,5.9s0.4,4.3,1.1,6c0.7,1.7,1.7,3.2,3,4.4c1.3,1.2,2.8,2.1,4.6,2.8c1.8,0.6,3.7,0.9,5.8,0.9
			c1.3,0,2.5-0.1,3.7-0.4s2.3-0.6,3.4-1.1c1-0.4,1.9-0.9,2.7-1.5s1.3-1.1,1.7-1.7l-2.4-3.5C151.4,32.1,150.8,32.6,150.2,33.1
			L150.2,33.1z"/>
		<path class="st0" d="M178.7,28.6c0,2.3-0.7,4-2,5.2s-3.1,1.8-5.3,1.8s-4-0.6-5.3-1.8s-2-3-2-5.2V11.3h-4.3v17.4
			c0,1.7,0.3,3.2,0.8,4.5c0.5,1.4,1.3,2.5,2.3,3.5c1,1,2.2,1.7,3.6,2.2c1.4,0.5,3.1,0.8,4.9,0.8s3.5-0.3,4.9-0.8
			c1.4-0.5,2.7-1.2,3.7-2.2s1.8-2.1,2.3-3.5c0.5-1.4,0.8-2.9,0.8-4.5V11.3h-4.3L178.7,28.6L178.7,28.6z"/>
		<path class="st0" d="M29.2,16.3c-1.9,6.5-5.1,18-5.3,18.8h-1l0,0h-0.5h0H22c-0.1-0.7-3.4-12.2-5.3-18.8c-0.7-2.6-1.3-4.9-1.3-4.9
			H7.4v28.4h4.3V21.9l0-1.4c0-3-1.3-3.9-1.5-4.2l2.5,0c0.1,0.3,0.2,0.7,0.3,1.1c0.1,0.5,0.3,1.2,0.6,2.2l6.2,20.3h6.5l6.2-20.3
			c0.3-0.9,0.5-1.6,0.6-2.2c0.1-0.4,0.2-0.7,0.3-1.1l2.5,0c-0.2,0.3-1.6,1.2-1.6,4.2l0,1.4v17.9h4.3V11.3h-8.1
			C30.5,11.3,29.9,13.7,29.2,16.3z"/>
	</g>
	<g>
		<path class="st0" d="M30.8,51.7V47h4.3v4.7h-0.9v-4h-2.6v4H30.8z"/>
		<path class="st0" d="M38.6,50.4c0-0.3,0.1-0.6,0.3-0.8c0.2-0.2,0.5-0.4,0.8-0.5s0.7-0.2,1.2-0.2c0.2,0,0.5,0,0.7,0.1
			c0.3,0,0.5,0.1,0.7,0.2v-0.3c0-0.4-0.1-0.6-0.4-0.9c-0.2-0.2-0.6-0.3-1-0.3c-0.3,0-0.6,0-0.8,0.1c-0.3,0.1-0.5,0.2-0.8,0.4
			l-0.3-0.6c0.3-0.2,0.7-0.4,1-0.5c0.3-0.1,0.7-0.2,1.1-0.2c0.7,0,1.2,0.2,1.6,0.5c0.4,0.3,0.6,0.8,0.6,1.4v2c0,0.1,0,0.2,0.1,0.2
			s0.1,0.1,0.2,0.1v0.6c-0.1,0-0.2,0-0.2,0s-0.1,0-0.2,0c-0.2,0-0.4-0.1-0.5-0.2c-0.1-0.1-0.2-0.2-0.2-0.3l0-0.3
			c-0.2,0.3-0.5,0.5-0.9,0.6s-0.7,0.2-1.1,0.2s-0.7-0.1-0.9-0.2c-0.3-0.1-0.5-0.3-0.6-0.5C38.7,50.9,38.6,50.6,38.6,50.4L38.6,50.4z
			 M42,50.7c0.1-0.1,0.1-0.2,0.2-0.3c0-0.1,0.1-0.2,0.1-0.2v-0.6c-0.2-0.1-0.4-0.1-0.7-0.2c-0.2,0-0.5-0.1-0.7-0.1
			c-0.4,0-0.8,0.1-1.1,0.2c-0.3,0.2-0.4,0.4-0.4,0.7c0,0.2,0,0.3,0.1,0.4s0.2,0.3,0.4,0.4c0.2,0.1,0.4,0.1,0.7,0.1
			c0.3,0,0.5-0.1,0.8-0.2C41.7,51,41.9,50.8,42,50.7L42,50.7z"/>
		<path class="st0" d="M49.9,51.8c-0.4,0-0.8-0.1-1.1-0.3c-0.3-0.2-0.6-0.4-0.8-0.7v2.9H47V47h0.8v0.9c0.2-0.3,0.5-0.5,0.8-0.7
			s0.7-0.3,1.1-0.3c0.4,0,0.7,0.1,1,0.2c0.3,0.1,0.6,0.3,0.8,0.5c0.2,0.2,0.4,0.5,0.5,0.8c0.1,0.3,0.2,0.6,0.2,0.9
			c0,0.5-0.1,0.9-0.3,1.2c-0.2,0.4-0.5,0.7-0.8,0.9S50.3,51.8,49.9,51.8L49.9,51.8z M49.6,51.1c0.3,0,0.5-0.1,0.7-0.2
			c0.2-0.1,0.4-0.2,0.5-0.4c0.2-0.2,0.3-0.4,0.3-0.6s0.1-0.4,0.1-0.7c0-0.2,0-0.5-0.1-0.7c-0.1-0.2-0.2-0.4-0.4-0.6
			s-0.4-0.3-0.6-0.4c-0.2-0.1-0.5-0.1-0.7-0.1c-0.2,0-0.3,0-0.5,0.1c-0.2,0.1-0.3,0.1-0.5,0.2c-0.2,0.1-0.3,0.2-0.4,0.3
			s-0.2,0.3-0.2,0.4V50c0.1,0.2,0.2,0.4,0.4,0.6c0.2,0.2,0.4,0.3,0.6,0.4C49.1,51.1,49.4,51.1,49.6,51.1L49.6,51.1z"/>
		<path class="st0" d="M58.2,53.7v-1.9H58c-0.5,0-1-0.1-1.4-0.3c-0.4-0.2-0.7-0.5-0.9-0.9c-0.2-0.4-0.3-0.8-0.3-1.2
			c0-0.4,0.1-0.8,0.3-1.2c0.2-0.4,0.5-0.6,0.9-0.9C57,47.1,57.4,47,58,47h0.2v-1.9H59V47h0.2c0.5,0,1,0.1,1.4,0.3
			c0.4,0.2,0.7,0.5,0.9,0.9c0.2,0.4,0.3,0.8,0.3,1.2c0,0.4-0.1,0.8-0.3,1.2c-0.2,0.4-0.5,0.6-0.9,0.9c-0.4,0.2-0.8,0.3-1.4,0.3H59
			v1.9H58.2L58.2,53.7z M58,51.1h0.2v-3.4H58c-0.3,0-0.6,0.1-0.9,0.2c-0.3,0.2-0.5,0.4-0.6,0.6c-0.2,0.3-0.2,0.6-0.2,0.9
			c0,0.3,0.1,0.6,0.2,0.9c0.1,0.3,0.3,0.5,0.6,0.6C57.3,51,57.6,51.1,58,51.1L58,51.1z M59,51.1h0.3c0.3,0,0.6-0.1,0.9-0.2
			s0.5-0.4,0.6-0.6c0.1-0.3,0.2-0.5,0.2-0.9c0-0.3-0.1-0.6-0.2-0.9c-0.1-0.3-0.3-0.5-0.6-0.6c-0.3-0.2-0.5-0.2-0.9-0.2H59L59,51.1
			L59,51.1z"/>
		<path class="st0" d="M69.7,51.8c-0.5,0-0.9-0.1-1.2-0.3c-0.4-0.2-0.6-0.4-0.9-0.7c-0.2-0.3-0.3-0.7-0.4-1.1h-1v2h-0.9V47h0.9v2h1
			c0.1-0.4,0.2-0.8,0.4-1.1c0.2-0.3,0.5-0.6,0.9-0.7c0.4-0.2,0.8-0.3,1.2-0.3c0.5,0,1,0.1,1.4,0.3c0.4,0.2,0.7,0.5,0.9,0.9
			c0.2,0.4,0.3,0.8,0.3,1.2s-0.1,0.9-0.3,1.3s-0.5,0.7-0.9,0.9C70.6,51.7,70.2,51.8,69.7,51.8L69.7,51.8z M69.7,51.1
			c0.3,0,0.6-0.1,0.9-0.2c0.2-0.2,0.4-0.4,0.6-0.6c0.1-0.3,0.2-0.6,0.2-0.9c0-0.4-0.1-0.7-0.2-0.9c-0.1-0.3-0.3-0.5-0.6-0.6
			c-0.3-0.1-0.5-0.2-0.8-0.2c-0.3,0-0.6,0.1-0.8,0.2s-0.4,0.4-0.6,0.6c-0.1,0.3-0.2,0.6-0.2,0.9c0,0.4,0.1,0.7,0.2,0.9
			c0.1,0.3,0.3,0.5,0.6,0.6C69.1,51.1,69.4,51.1,69.7,51.1L69.7,51.1z"/>
		<path class="st0" d="M75.8,51.7V47h0.9l1.9,3.1l1.9-3.1h0.9v4.7h-0.8v-3.6l-1.7,2.7h-0.6l-1.7-2.7v3.6H75.8L75.8,51.7z"/>
		<path class="st0" d="M87.7,51.8c-0.4,0-0.8-0.1-1.1-0.2c-0.3-0.1-0.6-0.3-0.8-0.5c-0.2-0.2-0.4-0.5-0.6-0.8
			C85.1,50,85,49.7,85,49.4c0-0.4,0.1-0.9,0.3-1.2c0.2-0.4,0.5-0.7,0.9-0.9c0.4-0.2,0.9-0.3,1.4-0.3c0.5,0,1,0.1,1.4,0.3
			s0.7,0.5,0.9,0.9s0.3,0.8,0.3,1.2c0,0.1,0,0.1,0,0.2c0,0.1,0,0.1,0,0.1h-4.3c0,0.3,0.1,0.6,0.3,0.8c0.2,0.2,0.4,0.4,0.6,0.6
			c0.3,0.1,0.5,0.2,0.8,0.2c0.3,0,0.6-0.1,0.9-0.2s0.5-0.3,0.6-0.6l0.8,0.2c-0.1,0.2-0.3,0.4-0.5,0.6c-0.2,0.2-0.5,0.3-0.8,0.4
			C88.3,51.8,88,51.8,87.7,51.8L87.7,51.8z M85.9,49.1h3.6c0-0.3-0.1-0.6-0.3-0.8c-0.2-0.2-0.4-0.4-0.6-0.6
			c-0.3-0.1-0.5-0.2-0.9-0.2c-0.3,0-0.6,0.1-0.8,0.2c-0.3,0.1-0.5,0.3-0.6,0.6C86,48.5,85.9,48.8,85.9,49.1L85.9,49.1z"/>
		<path class="st0" d="M96.5,51.8c-0.4,0-0.8-0.1-1.1-0.3c-0.3-0.2-0.6-0.4-0.8-0.7v2.9h-0.9V47h0.8v0.9c0.2-0.3,0.5-0.5,0.8-0.7
			s0.7-0.3,1.1-0.3c0.4,0,0.7,0.1,1,0.2c0.3,0.1,0.6,0.3,0.8,0.5c0.2,0.2,0.4,0.5,0.5,0.8s0.2,0.6,0.2,0.9c0,0.5-0.1,0.9-0.3,1.2
			c-0.2,0.4-0.5,0.7-0.8,0.9C97.4,51.7,97,51.8,96.5,51.8L96.5,51.8z M96.3,51.1c0.3,0,0.5-0.1,0.7-0.2c0.2-0.1,0.4-0.2,0.5-0.4
			c0.2-0.2,0.3-0.4,0.3-0.6s0.1-0.4,0.1-0.7c0-0.2,0-0.5-0.1-0.7c-0.1-0.2-0.2-0.4-0.4-0.6c-0.2-0.2-0.4-0.3-0.6-0.4
			s-0.5-0.1-0.7-0.1c-0.2,0-0.3,0-0.5,0.1c-0.2,0.1-0.3,0.1-0.5,0.2c-0.2,0.1-0.3,0.2-0.4,0.3s-0.2,0.3-0.2,0.4V50
			c0.1,0.2,0.2,0.4,0.4,0.6c0.2,0.2,0.4,0.3,0.6,0.4C95.8,51.1,96,51.1,96.3,51.1L96.3,51.1z"/>
		<path class="st0" d="M102.4,51.7V47h0.9v3.7l2.9-3.7h0.8v4.7h-0.9v-3.6l-2.9,3.6L102.4,51.7L102.4,51.7z"/>
		<path class="st0" d="M110.5,51.7l1.5-1.9c-0.3-0.1-0.6-0.2-0.8-0.4c-0.2-0.2-0.3-0.5-0.3-0.9c0-0.3,0.1-0.5,0.2-0.8
			c0.1-0.2,0.4-0.4,0.6-0.5c0.3-0.1,0.6-0.2,0.9-0.2h2.1v4.7h-0.9v-1.8h-1l-1.4,1.8L110.5,51.7L110.5,51.7z M112.7,49.4h1.2v-1.7
			h-1.1c-0.3,0-0.6,0.1-0.8,0.2c-0.2,0.2-0.3,0.4-0.3,0.6c0,0.2,0.1,0.5,0.2,0.6C112.2,49.3,112.4,49.4,112.7,49.4L112.7,49.4z"/>
		<path class="st0" d="M123.7,51.7V47h0.9v3.7l2.9-3.7h0.8v4.7h-0.9v-3.6l-2.9,3.6L123.7,51.7L123.7,51.7z"/>
		<path class="st0" d="M137.2,51.7V47h0.9v1.9h0.6l1.6-1.9h1l-1.9,2.3l2.2,2.5h-1l-1.8-2.1h-0.6v2.1L137.2,51.7L137.2,51.7z"/>
		<path class="st0" d="M146.9,51.8c-0.4,0-0.8-0.1-1.1-0.2s-0.6-0.3-0.8-0.5c-0.2-0.2-0.4-0.5-0.5-0.8c-0.1-0.3-0.2-0.6-0.2-0.9
			c0-0.3,0.1-0.6,0.2-0.9c0.1-0.3,0.3-0.6,0.5-0.8s0.5-0.4,0.8-0.5c0.3-0.1,0.7-0.2,1.1-0.2s0.8,0.1,1.1,0.2
			c0.3,0.1,0.6,0.3,0.8,0.5c0.2,0.2,0.4,0.5,0.5,0.8s0.2,0.6,0.2,0.9s-0.1,0.6-0.2,0.9c-0.1,0.3-0.3,0.6-0.5,0.8s-0.5,0.4-0.8,0.5
			C147.6,51.8,147.3,51.8,146.9,51.8z M145.2,49.4c0,0.3,0.1,0.6,0.2,0.9c0.2,0.3,0.4,0.5,0.6,0.6c0.3,0.2,0.6,0.2,0.9,0.2
			s0.6-0.1,0.9-0.2c0.3-0.2,0.5-0.4,0.6-0.6c0.2-0.3,0.2-0.6,0.2-0.9c0-0.3-0.1-0.6-0.2-0.9c-0.2-0.3-0.4-0.5-0.6-0.6
			s-0.6-0.2-0.9-0.2c-0.3,0-0.6,0.1-0.9,0.2c-0.3,0.2-0.5,0.4-0.6,0.6C145.2,48.8,145.2,49.1,145.2,49.4L145.2,49.4z"/>
		<path class="st0" d="M155.4,51.8c-0.4,0-0.8-0.1-1.1-0.2c-0.3-0.1-0.6-0.3-0.8-0.5c-0.2-0.2-0.4-0.5-0.6-0.8
			c-0.1-0.3-0.2-0.6-0.2-0.9c0-0.5,0.1-0.9,0.3-1.2c0.2-0.4,0.5-0.7,0.9-0.9c0.4-0.2,0.9-0.3,1.4-0.3c0.5,0,1,0.1,1.3,0.3
			c0.4,0.2,0.7,0.5,0.9,0.8l-0.9,0.2c-0.1-0.2-0.3-0.4-0.6-0.5c-0.2-0.1-0.5-0.2-0.8-0.2c-0.3,0-0.6,0.1-0.9,0.2
			c-0.3,0.2-0.5,0.4-0.6,0.6c-0.2,0.3-0.2,0.6-0.2,0.9s0.1,0.6,0.2,0.9c0.2,0.3,0.4,0.5,0.6,0.6c0.3,0.2,0.6,0.2,0.9,0.2
			c0.2,0,0.4,0,0.6-0.1c0.2-0.1,0.4-0.2,0.5-0.3c0.1-0.1,0.2-0.2,0.3-0.4l0.9,0.2c-0.1,0.2-0.3,0.4-0.5,0.6
			c-0.2,0.2-0.5,0.3-0.8,0.4C156.1,51.8,155.7,51.8,155.4,51.8L155.4,51.8z"/>
		<path class="st0" d="M161.1,51.7V47h0.9l1.9,3.1l1.9-3.1h0.9v4.7h-0.8v-3.6l-1.7,2.7h-0.6l-1.7-2.7v3.6H161.1z"/>
		<path class="st0" d="M173,51.8c-0.4,0-0.8-0.1-1.1-0.2c-0.3-0.1-0.6-0.3-0.8-0.5c-0.2-0.2-0.4-0.5-0.6-0.8
			c-0.1-0.3-0.2-0.6-0.2-0.9c0-0.4,0.1-0.9,0.3-1.2c0.2-0.4,0.5-0.7,0.9-0.9c0.4-0.2,0.9-0.3,1.4-0.3c0.5,0,1,0.1,1.4,0.3
			c0.4,0.2,0.7,0.5,0.9,0.9c0.2,0.4,0.3,0.8,0.3,1.2c0,0.1,0,0.1,0,0.2c0,0.1,0,0.1,0,0.1h-4.3c0,0.3,0.1,0.6,0.3,0.8
			c0.2,0.2,0.4,0.4,0.6,0.6c0.3,0.1,0.5,0.2,0.8,0.2c0.3,0,0.6-0.1,0.9-0.2c0.3-0.1,0.5-0.3,0.6-0.6l0.8,0.2
			c-0.1,0.2-0.3,0.4-0.5,0.6c-0.2,0.2-0.5,0.3-0.8,0.4C173.7,51.8,173.3,51.8,173,51.8L173,51.8z M171.2,49.1h3.6
			c0-0.3-0.1-0.6-0.3-0.8c-0.2-0.2-0.4-0.4-0.6-0.6s-0.5-0.2-0.9-0.2c-0.3,0-0.6,0.1-0.9,0.2s-0.5,0.3-0.6,0.6
			C171.3,48.5,171.3,48.8,171.2,49.1z"/>
		<path class="st0" d="M180.3,51.7v-4h-1.8V47h4.5v0.7h-1.8v4H180.3z"/>
		<path class="st0" d="M186.4,51.7V47h0.9v3.7l2.9-3.7h0.8v4.7h-0.9v-3.6l-2.9,3.6L186.4,51.7L186.4,51.7z"/>
		<path class="st0" d="M194.9,51.7V47h0.9v1.9h0.6l1.6-1.9h1l-1.9,2.3l2.2,2.5h-1l-1.8-2.1h-0.6v2.1L194.9,51.7L194.9,51.7z"/>
		<path class="st0" d="M202.1,50.4c0-0.3,0.1-0.6,0.3-0.8s0.5-0.4,0.8-0.5c0.3-0.1,0.7-0.2,1.2-0.2c0.2,0,0.5,0,0.7,0.1
			c0.3,0,0.5,0.1,0.7,0.2v-0.3c0-0.4-0.1-0.6-0.4-0.9c-0.2-0.2-0.6-0.3-1-0.3c-0.3,0-0.6,0-0.8,0.1c-0.3,0.1-0.5,0.2-0.8,0.4
			l-0.3-0.6c0.3-0.2,0.7-0.4,1-0.5c0.3-0.1,0.7-0.2,1.1-0.2c0.7,0,1.2,0.2,1.6,0.5c0.4,0.3,0.6,0.8,0.6,1.4v2c0,0.1,0,0.2,0.1,0.2
			s0.1,0.1,0.2,0.1v0.6c-0.1,0-0.2,0-0.2,0s-0.1,0-0.2,0c-0.2,0-0.4-0.1-0.5-0.2c-0.1-0.1-0.2-0.2-0.2-0.3l0-0.3
			c-0.2,0.3-0.5,0.5-0.9,0.6s-0.7,0.2-1.1,0.2c-0.4,0-0.7-0.1-0.9-0.2c-0.3-0.1-0.5-0.3-0.6-0.5C202.2,50.9,202.1,50.6,202.1,50.4
			L202.1,50.4z M205.5,50.7c0.1-0.1,0.1-0.2,0.2-0.3c0-0.1,0.1-0.2,0.1-0.2v-0.6c-0.2-0.1-0.4-0.1-0.7-0.2c-0.2,0-0.5-0.1-0.7-0.1
			c-0.4,0-0.8,0.1-1.1,0.2c-0.3,0.2-0.4,0.4-0.4,0.7c0,0.2,0,0.3,0.1,0.4c0.1,0.1,0.2,0.3,0.4,0.4c0.2,0.1,0.4,0.1,0.7,0.1
			c0.3,0,0.5-0.1,0.8-0.2C205.2,51,205.4,50.8,205.5,50.7L205.5,50.7z"/>
	</g>
</g>
</svg>
