<svg viewBox="0 0 488 186" fill="none" xmlns="http://www.w3.org/2000/svg">
<path fill-rule="evenodd" clip-rule="evenodd" d="M100.972 23.4619C134.461 23.4619 161.618 49.7412 161.618 82.146C161.618 114.549 134.461 140.825 100.972 140.825C67.4853 140.825 40.3245 114.549 40.3245 82.146C40.3245 49.7412 67.4853 23.4619 100.972 23.4619Z" fill="#FEFEFE"/>
<path fill-rule="evenodd" clip-rule="evenodd" d="M105.327 47.8235C103.486 47.7628 101.725 47.5957 99.9485 47.6531C99.0548 47.6826 98.1335 47.6432 97.282 47.6711C95.9886 47.7104 95.5401 47.7432 95.4458 48.9178C95.3353 50.2825 95.6132 50.2661 96.6889 50.3693L105.173 50.425L105.295 70.3561L93.6194 70.5232L93.6161 67.055L93.7283 61.7667L104.567 61.6798L104.415 59.4993L93.6421 59.537C93.5918 59.5616 93.5235 59.6091 93.4731 59.6353L90.7806 61.2785C90.558 63.7522 90.9399 63.518 89.1199 64.786C89.4661 68.9406 88.8177 73.6293 89.2061 77.7577C90.818 77.8544 91.221 76.9976 93.5934 76.7895L93.6389 73.3688C95.5791 73.3197 103.52 72.8905 105.01 73.4835C105.017 73.531 104.992 73.5638 104.991 73.6277C104.989 73.6916 104.974 73.7489 104.973 73.7702L104.692 83.8111C104.001 83.7963 102.893 83.8471 102.266 83.7882L96.1445 83.1263C94.1897 86.5896 97.438 85.682 100.831 85.6787C102.799 85.6771 103.649 85.6459 104.768 87.1892L104.799 95.4919C102.581 95.5132 95.2248 95.9768 93.8111 95.1298L93.7624 84.7695C91.5703 84.6237 90.9854 84.4418 90.0738 85.3052L89.3003 86.0555L89.2077 110.633L93.5723 110.072C93.5203 108.491 92.958 101.118 93.6958 99.83L94.0955 99.25C99.1881 98.7537 101.042 98.7471 105.598 100.14L105.737 107.35C105.792 108.341 106.014 108.998 105.714 109.239C103.965 110.639 95.8407 107.851 94.9323 111.381C98.5657 111.634 102.924 110.937 105.647 112.237C105.912 113.621 106.037 122.995 105.738 124.219L101.7 124.342L101.447 126.275C104.643 126.419 106 125.711 105.962 129.435C105.948 130.777 105.974 137.687 106.281 138.688C106.3 138.752 106.333 138.83 106.354 138.896C106.375 138.963 106.403 139.045 106.422 139.112C106.442 139.178 106.465 139.263 106.484 139.327C106.651 139.902 106.276 139.36 106.679 140.051C107.808 140.462 113.77 140.665 115.251 140.292L115.242 120.949L109.859 120.642C109.25 114.881 109.841 108.945 109.471 103.097C109.318 100.68 109.623 96.2488 108.996 94.2976C108.975 94.2337 108.938 94.1649 108.918 94.0994L108.59 86.0424C108.655 80.8721 108.432 73.9324 108.215 68.7424L108.063 55.4266L108.072 50.6052C106.858 49.5141 107.131 51.4211 107.067 46.6357C107.051 45.3071 107.082 42.8825 106.837 41.68L105.285 41.5342L105.327 47.8235Z" fill="#2B2A29"/>
<path fill-rule="evenodd" clip-rule="evenodd" d="M75.3306 130.578C75.3712 133.396 75.0105 136.028 75.134 138.73C77.1034 138.759 77.2204 138.843 77.1148 136.553L77.6348 128.445C77.6657 127.966 78.4716 128.012 79.1704 128.307L79.2305 140.501C81.1138 140.271 81.5753 141.046 82.4381 141.408L82.287 125.19C82.3374 121.97 82.3942 119.092 82.3487 115.827L86.7848 115.064L86.7962 113.034L82.261 113.07C82.1927 110.308 82.0562 105.522 82.5015 102.886L87.5485 102.747L87.5047 100.865L82.4999 100.725L82.3292 100.213C82.3146 100.141 82.2805 100.041 82.2659 99.949C81.7378 96.7216 82.1164 88.0421 82.352 84.066C82.5307 81.0435 82.8232 80.5192 86.416 80.303L86.39 78.6123L83.2668 78.5648C82.7956 77.7456 82.8785 76.5841 82.8606 75.5831C82.8378 74.2218 82.859 72.8325 82.8655 71.4646L86.3233 71.096L86.3818 69.8902C85.2265 69.8607 83.9672 69.7952 82.9435 69.9672L83.4326 58.3782C82.5486 58.3913 82.0985 58.5174 81.5119 58.7681C80.727 72.4737 79.3897 87.2377 79.5148 100.781L79.3816 117.765C79.2321 119.362 79.159 125.629 78.2929 126.118C78.1223 118.062 78.5139 110.449 78.522 102.788C78.5643 88.2158 79.1557 73.8908 79.1314 59.3972C79.1167 56.8988 79.393 51.7334 79.0534 49.5709L77.1636 49.4824L76.1138 88.2207C75.6069 89.6705 75.2348 123.764 75.3306 130.578Z" fill="#2B2A29"/>
<path fill-rule="evenodd" clip-rule="evenodd" d="M110.35 102.377C113.879 102.888 121.287 102.007 124.519 103.712C124.568 103.738 124.635 103.789 124.682 103.818C124.727 103.848 124.791 103.904 124.836 103.935C124.903 103.981 125.085 104.128 125.151 104.177C129.331 107.257 125.562 109.47 129.479 109.534C135.878 109.638 134.139 109.285 134.11 102.798L133.79 96.8116C133.377 91.697 110.407 86.4578 110.15 90.1718L110.35 102.377Z" fill="#2B2A29"/>
<path fill-rule="evenodd" clip-rule="evenodd" d="M93.9882 117.262L93.9654 111.415L88.8566 111.908C88.7153 114.252 88.7023 117.151 88.7104 119.519C88.712 120.425 88.6243 122.365 88.7461 123.15C88.9493 124.439 89.8885 124.472 90.4507 124.908L90.6506 141.315L94.0028 140.697C94.5407 138.934 93.7981 142.252 94.1296 140.214L94.0889 126.616L97.5354 126.249L97.5549 124.441L93.9102 124.228L93.9882 117.262Z" fill="#2B2A29"/>
<path fill-rule="evenodd" clip-rule="evenodd" d="M127.254 128.397C127.491 127.929 138.351 128.112 139.769 128.363L140.25 119.518C138.274 118.25 125.072 118.892 122.534 119.067C121.726 121.076 122.304 131.118 122.259 134.831C122.241 136.341 122.01 137.303 122.433 138.602C122.46 138.685 122.573 138.939 122.595 138.997L122.774 139.36C125.023 137.93 126.755 138.715 127.095 136.785C127.103 135.894 127.139 128.625 127.254 128.397Z" fill="#2B2A29"/>
<path fill-rule="evenodd" clip-rule="evenodd" d="M114.898 108.727C113.92 108.651 113.245 108.505 112.038 109.706C112.031 109.713 111.653 110.137 111.643 110.15C111.079 110.873 111.092 111.115 111.055 112.119C110.987 113.964 110.918 117.395 111.12 119.257L115.158 119.138L114.878 111.579L114.898 108.727Z" fill="#2B2A29"/>
<path fill-rule="evenodd" clip-rule="evenodd" d="M128.042 136.474C128.864 136.248 128.118 136.42 128.629 135.971C129.102 135.556 128.63 135.809 129.287 135.466C132.699 133.687 130.311 134.67 131.757 133.821C132.304 133.5 132.371 133.735 133.154 133.251C134.23 132.588 134.218 132.206 135.598 131.605C137.01 130.99 137.411 131.189 137.862 129.604L127.904 129.649L128.042 136.474Z" fill="#2B2A29"/>
<path fill-rule="evenodd" clip-rule="evenodd" d="M90.7171 51.4578L90.436 54.3002C89.6885 54.6704 89.5504 54.5492 88.9411 54.9358L88.9801 59.0249C89.6934 59.1478 89.3181 59.2723 90.1435 58.9922L91.177 58.3074C92.2478 57.5194 91.7994 57.5685 93.5722 57.1704L93.4227 50.4912L90.7171 51.4578Z" fill="#2B2A29"/>
<path fill-rule="evenodd" clip-rule="evenodd" d="M89.0825 82.9076C90.0948 83.1354 90.6051 83.232 91.6369 82.8323L93.686 82.0852L93.6356 79.4755C88.0458 78.8841 89.0159 79.5378 89.0825 82.9076Z" fill="#2B2A29"/>
<path fill-rule="evenodd" clip-rule="evenodd" d="M93.4097 47.645L93.3675 45.1254L88.9541 44.9648C88.777 48.0546 88.5284 48.4478 89.7146 48.6313C91.489 48.9065 89.8868 48.3331 93.4097 47.645Z" fill="#2B2A29"/>
<path fill-rule="evenodd" clip-rule="evenodd" d="M67.1377 118.452C67.2888 118.153 74.2549 118.271 75.1649 118.431L75.4736 115.949C74.2062 115.137 65.737 115.549 64.1088 115.661C63.5905 116.949 63.9626 123.39 63.9333 125.772C63.9219 126.74 63.7741 127.358 64.0454 128.19C64.0617 128.244 64.1348 128.408 64.1494 128.444L64.2648 128.677C65.7061 127.761 66.8176 128.262 67.0353 127.026C67.0402 126.454 67.0646 118.598 67.1377 118.452Z" fill="#2B2A29"/>
<path fill-rule="evenodd" clip-rule="evenodd" d="M100.972 23.4619C134.461 23.4619 161.618 49.7412 161.618 82.146C161.618 114.549 134.461 140.825 100.972 140.825C67.4853 140.825 40.3245 114.549 40.3245 82.146C40.3245 49.7412 67.4853 23.4619 100.972 23.4619Z" stroke="#FEFEFE" stroke-width="0.5" stroke-linejoin="round"/>
<path fill-rule="evenodd" clip-rule="evenodd" d="M29.6958 42.771L36.8293 32.8546L46.0524 39.0652C51.4229 32.6727 57.9551 27.2304 65.334 23.0431L60.6801 13.0005L72.0742 8.06119L76.6208 17.8711C84.1296 15.1942 92.23 13.7181 100.673 13.687L101.841 2.90723L114.259 4.16869L113.117 14.701C121.407 16.0968 129.209 18.895 136.248 22.8366L142.762 14.226L152.837 21.3638L146.464 29.7861C152.648 34.8254 157.933 40.8689 162.049 47.6513L171.93 43.3886L177.013 54.4223L167.392 58.5736C170.195 65.9261 171.727 73.8684 171.727 82.1449C171.727 107.349 157.52 129.45 136.464 141.332L140.835 150.68L129.459 155.663L125.163 146.476C117.763 149.091 109.792 150.542 101.489 150.601L100.514 160.921H100.467L88.0799 159.823L89.0418 149.625C80.7611 148.255 72.9598 145.486 65.9173 141.573L59.5914 150.214L49.4047 143.231L55.6769 134.666C49.4616 129.64 44.1496 123.603 40.006 116.819L29.8762 121.35L24.6406 110.382L34.6307 105.919C31.7936 98.5422 30.232 90.5786 30.2174 82.2677L18.9777 81.1898L20.2126 69.1633L31.2931 70.2315C32.6743 62.684 35.3376 55.5576 39.0571 49.0733L29.6958 42.771Z" fill="#9D9E9E"/>
<path fill-rule="evenodd" clip-rule="evenodd" d="M100.972 23.4619C134.461 23.4619 161.618 49.7412 161.618 82.146C161.618 114.549 134.461 140.825 100.972 140.825C67.4853 140.825 40.3245 114.549 40.3245 82.146C40.3245 49.7412 67.4853 23.4619 100.972 23.4619Z" fill="#FEFEFE"/>
<path fill-rule="evenodd" clip-rule="evenodd" d="M105.327 47.8235C103.486 47.7628 101.725 47.5957 99.9485 47.6531C99.0548 47.6826 98.1335 47.6432 97.282 47.6711C95.9886 47.7104 95.5401 47.7432 95.4458 48.9178C95.3353 50.2825 95.6132 50.2661 96.6889 50.3693L105.173 50.425L105.295 70.3561L93.6194 70.5232L93.6161 67.055L93.7283 61.7667L104.567 61.6798L104.415 59.4993L93.6421 59.537C93.5918 59.5616 93.5235 59.6091 93.4731 59.6353L90.7806 61.2785C90.558 63.7522 90.9399 63.518 89.1199 64.786C89.4661 68.9406 88.8177 73.6293 89.2061 77.7577C90.818 77.8544 91.221 76.9976 93.5934 76.7895L93.6389 73.3688C95.5791 73.3197 103.52 72.8905 105.01 73.4835C105.017 73.531 104.992 73.5638 104.991 73.6277C104.989 73.6916 104.974 73.7489 104.973 73.7702L104.692 83.8111C104.001 83.7963 102.893 83.8471 102.266 83.7882L96.1445 83.1263C94.1897 86.5896 97.438 85.682 100.831 85.6787C102.799 85.6771 103.649 85.6459 104.768 87.1892L104.799 95.4919C102.581 95.5132 95.2248 95.9768 93.8111 95.1298L93.7624 84.7695C91.5703 84.6237 90.9854 84.4418 90.0738 85.3052L89.3003 86.0555L89.2077 110.633L93.5723 110.072C93.5203 108.491 92.958 101.118 93.6958 99.83L94.0955 99.25C99.1881 98.7537 101.042 98.7471 105.598 100.14L105.737 107.35C105.792 108.341 106.014 108.998 105.714 109.239C103.965 110.639 95.8407 107.851 94.9323 111.381C98.5657 111.634 102.924 110.937 105.647 112.237C105.912 113.621 106.037 122.995 105.738 124.219L101.7 124.342L101.447 126.275C104.643 126.419 106 125.711 105.962 129.435C105.948 130.777 105.974 137.687 106.281 138.688C106.3 138.752 106.333 138.83 106.354 138.896C106.375 138.963 106.403 139.045 106.422 139.112C106.442 139.178 106.465 139.263 106.484 139.327C106.651 139.902 106.276 139.36 106.679 140.051C107.808 140.462 113.77 140.665 115.251 140.292L115.242 120.949L109.859 120.642C109.25 114.881 109.841 108.945 109.471 103.097C109.318 100.68 109.623 96.2488 108.996 94.2976C108.975 94.2337 108.938 94.1649 108.918 94.0994L108.59 86.0424C108.655 80.8721 108.432 73.9324 108.215 68.7424L108.063 55.4266L108.072 50.6052C106.858 49.5141 107.131 51.4211 107.067 46.6357C107.051 45.3071 107.082 42.8825 106.837 41.68L105.285 41.5342L105.327 47.8235Z" fill="#2B2A29"/>
<path fill-rule="evenodd" clip-rule="evenodd" d="M75.3306 130.578C75.3712 133.396 75.0105 136.028 75.134 138.73C77.1034 138.759 77.2204 138.843 77.1148 136.553L77.6348 128.445C77.6657 127.966 78.4716 128.012 79.1704 128.307L79.2305 140.501C81.1138 140.271 81.5753 141.046 82.4381 141.408L82.287 125.19C82.3374 121.97 82.3942 119.092 82.3487 115.827L86.7848 115.064L86.7962 113.034L82.261 113.07C82.1927 110.308 82.0562 105.522 82.5015 102.886L87.5485 102.747L87.5047 100.865L82.4999 100.725L82.3292 100.213C82.3146 100.141 82.2805 100.041 82.2659 99.949C81.7378 96.7216 82.1164 88.0421 82.352 84.066C82.5307 81.0435 82.8232 80.5192 86.416 80.303L86.39 78.6123L83.2668 78.5648C82.7956 77.7456 82.8785 76.5841 82.8606 75.5831C82.8378 74.2218 82.859 72.8325 82.8655 71.4646L86.3233 71.096L86.3818 69.8902C85.2265 69.8607 83.9672 69.7952 82.9435 69.9672L83.4326 58.3782C82.5486 58.3913 82.0985 58.5174 81.5119 58.7681C80.727 72.4737 79.3897 87.2377 79.5148 100.781L79.3816 117.765C79.2321 119.362 79.159 125.629 78.2929 126.118C78.1223 118.062 78.5139 110.449 78.522 102.788C78.5643 88.2158 79.1557 73.8908 79.1314 59.3972C79.1167 56.8988 79.393 51.7334 79.0534 49.5709L77.1636 49.4824L76.1138 88.2207C75.6069 89.6705 75.2348 123.764 75.3306 130.578Z" fill="#2B2A29"/>
<path fill-rule="evenodd" clip-rule="evenodd" d="M110.35 102.377C113.879 102.888 121.287 102.007 124.519 103.712C124.568 103.738 124.635 103.789 124.682 103.818C124.727 103.848 124.791 103.904 124.836 103.935C124.903 103.981 125.085 104.128 125.151 104.177C129.331 107.257 125.562 109.47 129.479 109.534C135.878 109.638 134.139 109.285 134.11 102.798L133.79 96.8116C133.377 91.697 110.407 86.4578 110.15 90.1718L110.35 102.377Z" fill="#2B2A29"/>
<path fill-rule="evenodd" clip-rule="evenodd" d="M93.9882 117.262L93.9654 111.415L88.8566 111.908C88.7153 114.252 88.7023 117.151 88.7104 119.519C88.712 120.425 88.6243 122.365 88.7461 123.15C88.9493 124.439 89.8885 124.472 90.4507 124.908L90.6506 141.315L94.0028 140.697C94.5407 138.934 93.7981 142.252 94.1296 140.214L94.0889 126.616L97.5354 126.249L97.5549 124.441L93.9102 124.228L93.9882 117.262Z" fill="#2B2A29"/>
<path fill-rule="evenodd" clip-rule="evenodd" d="M127.254 128.397C127.491 127.929 138.351 128.112 139.769 128.363L140.25 119.518C138.274 118.25 125.072 118.892 122.534 119.067C121.726 121.076 122.304 131.118 122.259 134.831C122.241 136.341 122.01 137.303 122.433 138.602C122.46 138.685 122.573 138.939 122.595 138.997L122.774 139.36C125.023 137.93 126.755 138.715 127.095 136.785C127.103 135.894 127.139 128.625 127.254 128.397Z" fill="#2B2A29"/>
<path fill-rule="evenodd" clip-rule="evenodd" d="M114.898 108.727C113.92 108.651 113.245 108.505 112.038 109.706C112.031 109.713 111.653 110.137 111.643 110.15C111.079 110.873 111.092 111.115 111.055 112.119C110.987 113.964 110.918 117.395 111.12 119.257L115.158 119.138L114.878 111.579L114.898 108.727Z" fill="#2B2A29"/>
<path fill-rule="evenodd" clip-rule="evenodd" d="M128.042 136.474C128.864 136.248 128.118 136.42 128.629 135.971C129.102 135.556 128.63 135.809 129.287 135.466C132.699 133.687 130.311 134.67 131.757 133.821C132.304 133.5 132.371 133.735 133.154 133.251C134.23 132.588 134.218 132.206 135.598 131.605C137.01 130.99 137.411 131.189 137.862 129.604L127.904 129.649L128.042 136.474Z" fill="#2B2A29"/>
<path fill-rule="evenodd" clip-rule="evenodd" d="M90.7171 51.4578L90.436 54.3002C89.6885 54.6704 89.5504 54.5492 88.9411 54.9358L88.9801 59.0249C89.6934 59.1478 89.3181 59.2723 90.1435 58.9922L91.177 58.3074C92.2478 57.5194 91.7994 57.5685 93.5722 57.1704L93.4227 50.4912L90.7171 51.4578Z" fill="#2B2A29"/>
<path fill-rule="evenodd" clip-rule="evenodd" d="M89.0825 82.9076C90.0948 83.1354 90.6051 83.232 91.6369 82.8323L93.686 82.0852L93.6356 79.4755C88.0458 78.8841 89.0159 79.5378 89.0825 82.9076Z" fill="#2B2A29"/>
<path fill-rule="evenodd" clip-rule="evenodd" d="M93.4097 47.645L93.3675 45.1254L88.9541 44.9648C88.777 48.0546 88.5284 48.4478 89.7146 48.6313C91.489 48.9065 89.8868 48.3331 93.4097 47.645Z" fill="#2B2A29"/>
<path fill-rule="evenodd" clip-rule="evenodd" d="M67.1377 118.452C67.2888 118.153 74.2549 118.271 75.1649 118.431L75.4736 115.949C74.2062 115.137 65.737 115.549 64.1088 115.661C63.5905 116.949 63.9626 123.39 63.9333 125.772C63.9219 126.74 63.7741 127.358 64.0454 128.19C64.0617 128.244 64.1348 128.408 64.1494 128.444L64.2648 128.677C65.7061 127.761 66.8176 128.262 67.0353 127.026C67.0402 126.454 67.0646 118.598 67.1377 118.452Z" fill="#2B2A29"/>
<path fill-rule="evenodd" clip-rule="evenodd" d="M277.012 142.958H263.001L257.431 128.926H231.947L226.69 142.958H213.035L237.864 81.215H251.481L277.012 142.958ZM187.892 57.0703H213.035L200.259 142.581H175.115L188.118 106.21L187.892 57.0703ZM148.461 57.3734H173.623L160.802 142.877H135.65L148.461 57.3734ZM253.309 118.525L244.514 95.6153L235.91 118.525H253.309ZM290.174 142.958V91.6605H271.261V81.215H321.93V91.6605H303.063V142.958H290.174ZM349.668 106.99H369.675C369.168 102.388 367.581 98.5674 364.918 95.5137C362.264 92.4796 358.673 90.9495 354.104 90.9495C350.669 90.9495 347.76 91.8587 345.412 93.7264C343.07 95.5776 341.41 98.0366 340.454 101.09L327.719 98.2758C329.013 92.8024 331.896 88.42 336.345 85.114C340.795 81.8211 346.585 80.1681 353.725 80.1681C362.999 80.1681 370.249 83.1465 375.459 89.1097C380.683 95.0746 383.291 102.853 383.291 112.419C383.291 118.939 382.077 124.535 379.662 129.229C377.24 133.908 373.917 137.55 369.675 140.132C365.452 142.705 360.348 144.005 354.372 144.005C339.848 144.003 330.895 137.388 327.539 124.16L340.454 120.299C341.122 124.755 342.77 128.053 345.397 130.223C348.013 132.353 351.163 133.438 354.812 133.438C358.58 133.436 361.803 132.153 364.492 129.609C367.155 127.058 368.902 122.959 369.675 117.35H349.668V106.99ZM393.827 81.215H406.695V107.493C409.569 107.217 411.518 106.506 412.532 105.35C413.539 104.201 415.107 101 417.208 95.7512C419.891 89.0704 422.579 84.9142 425.26 83.2874C427.936 81.6475 432.237 80.8398 438.176 80.8398C438.477 80.8398 439.096 80.8267 440.05 80.8021L440.052 90.0075L438.224 89.9666C435.594 89.9666 433.666 90.2844 432.445 90.9249C431.231 91.5557 430.237 92.5108 429.496 93.8148C428.736 95.0992 427.629 97.745 426.14 101.767C425.354 103.897 424.507 105.679 423.591 107.113C422.678 108.539 421.064 109.888 418.749 111.148C421.61 111.941 423.986 113.53 425.861 115.912C427.73 118.3 429.775 121.688 432.005 126.015L440.705 142.958H425.573L417.962 126.994C417.844 126.768 417.601 126.331 417.208 125.686C417.081 125.458 416.534 124.503 415.612 122.786C413.966 119.745 412.597 117.855 411.544 117.086C410.496 116.331 408.867 115.951 406.693 115.912L406.695 142.958H393.827V81.215Z" fill="#094A89"/>
<path fill-rule="evenodd" clip-rule="evenodd" d="M158.516 69.04C171.092 69.04 181.296 78.9073 181.296 91.0796C181.296 94.3561 180.555 97.4671 179.229 100.262L199.071 108.994L171.205 109.382C167.578 111.741 163.214 113.119 158.516 113.119C145.939 113.119 135.739 103.252 135.739 91.0796C135.739 78.9073 145.939 69.04 158.516 69.04Z" fill="#E31E24"/>
<path d="M155.328 167.194V170.184H140.322V167.194H155.328ZM140.894 155.273V183H137.218V155.273H140.894ZM158.527 155.273V183H154.871V155.273H158.527ZM182.674 180.01V183H167.992V180.01H182.674ZM168.734 155.273V183H165.059V155.273H168.734ZM180.731 167.194V170.184H167.992V167.194H180.731ZM182.483 155.273V158.282H167.992V155.273H182.483ZM196.842 158.035H201.431C203.031 158.035 204.51 158.308 205.868 158.854C207.239 159.387 208.433 160.148 209.448 161.139C210.477 162.129 211.276 163.31 211.848 164.681C212.419 166.039 212.705 167.543 212.705 169.194C212.705 170.844 212.419 172.355 211.848 173.726C211.276 175.097 210.477 176.284 209.448 177.287C208.433 178.277 207.239 179.045 205.868 179.591C204.51 180.125 203.031 180.391 201.431 180.391H196.842C195.242 180.391 193.763 180.125 192.405 179.591C191.046 179.045 189.853 178.277 188.825 177.287C187.809 176.297 187.016 175.123 186.444 173.764C185.886 172.393 185.606 170.882 185.606 169.232C185.606 167.582 185.886 166.077 186.444 164.719C187.016 163.348 187.809 162.167 188.825 161.177C189.853 160.174 191.046 159.399 192.405 158.854C193.763 158.308 195.242 158.035 196.842 158.035ZM196.842 160.929C195.179 160.929 193.77 161.278 192.614 161.977C191.459 162.662 190.583 163.627 189.986 164.871C189.39 166.115 189.091 167.569 189.091 169.232C189.091 170.489 189.256 171.625 189.586 172.641C189.929 173.656 190.431 174.526 191.091 175.25C191.751 175.973 192.563 176.532 193.528 176.925C194.493 177.319 195.598 177.516 196.842 177.516H201.469C203.12 177.516 204.516 177.173 205.659 176.487C206.814 175.789 207.69 174.818 208.287 173.574C208.896 172.317 209.201 170.857 209.201 169.194C209.201 167.95 209.029 166.82 208.687 165.804C208.344 164.789 207.842 163.919 207.182 163.195C206.535 162.472 205.729 161.913 204.764 161.52C203.812 161.126 202.713 160.929 201.469 160.929H196.842ZM200.917 154.131V184.143H197.394V154.131H200.917ZM227.596 155.273V183H223.978V155.273H227.596ZM236.508 155.273V158.282H215.085V155.273H236.508ZM258.236 180.01V183H243.554V180.01H258.236ZM244.297 155.273V183H240.622V155.273H244.297ZM256.294 167.194V170.184H243.554V167.194H256.294ZM258.046 155.273V158.282H243.554V155.273H258.046ZM265.168 155.273L271.833 165.899L278.498 155.273H282.783L274.023 169.003L282.992 183H278.669L271.833 172.165L264.997 183H260.674L269.643 169.003L260.883 155.273H265.168ZM291.066 176.64L304.72 155.273H308.396V183H304.72V161.615L291.066 183H287.41V155.273H291.066V176.64ZM316.241 155.273H319.802L328.886 177.877L337.95 155.273H341.53L330.257 183H327.477L316.241 155.273ZM315.08 155.273H318.222L318.736 172.184V183H315.08V155.273ZM339.531 155.273H342.673V183H339.017V172.184L339.531 155.273ZM350.29 155.273H353.851L362.935 177.877L371.999 155.273H375.579L364.306 183H361.525L350.29 155.273ZM349.128 155.273H352.271L352.785 172.184V183H349.128V155.273ZM373.58 155.273H376.722V183H373.065V172.184L373.58 155.273ZM393.784 157.73L384.605 183H380.854L391.423 155.273H393.841L393.784 157.73ZM401.478 183L392.28 157.73L392.223 155.273H394.641L405.248 183H401.478ZM401.001 172.736V175.745H385.424V172.736H401.001ZM409.095 155.273H412.789V180.01H422.311V155.273H425.967V180.01H435.431V155.273H439.106V183H409.095V155.273Z" fill="#333333"/>
</svg>
