<svg width="72" height="99" viewBox="0 0 72 99" fill="#000000" xmlns="http://www.w3.org/2000/svg">
<g clip-path="url(#clip0_1600_497)">
<path d="M8.80941 87.7553C8.80941 86.5694 7.79294 85.7223 6.60706 85.7223H3.21882V89.7882H6.60706C7.96235 89.7882 8.80941 88.9412 8.80941 87.7553ZM0 82.8423H7.11529C10.3341 82.8423 12.1976 85.0447 12.1976 87.7553C12.1976 90.2965 10.3341 92.6682 7.11529 92.6682H3.21882V98.0894H0V82.8423Z" fill="#000000"/>
<path d="M21.8541 92.4988C21.8541 90.8047 20.8377 89.28 18.9741 89.28C17.1106 89.28 16.2636 90.8047 16.2636 92.4988C16.2636 94.1929 17.28 95.7177 18.9741 95.7177C20.6683 95.7177 21.8541 94.1929 21.8541 92.4988ZM13.3835 92.4988C13.3835 89.4494 15.5859 86.7388 19.1436 86.7388C22.7012 86.7388 24.9036 89.28 24.9036 92.4988C24.9036 95.5482 22.7012 98.2588 19.1436 98.2588C15.5859 98.2588 13.3835 95.5482 13.3835 92.4988Z" fill="#000000"/>
<path d="M26.767 92.4988C26.767 89.1106 29.1388 86.7388 32.5271 86.7388C34.7294 86.7388 36.0847 87.7553 36.9318 88.7718L35.0682 90.4659C34.56 89.6188 33.7129 89.28 32.6965 89.28C31.0023 89.28 29.647 90.4659 29.647 92.4988C29.647 94.5318 30.8329 95.7177 32.6965 95.7177C33.7129 95.7177 34.56 95.2094 35.0682 94.5318L36.9318 96.2259C36.2541 97.2424 34.8988 98.2588 32.5271 98.2588C29.1388 98.2588 26.767 95.8871 26.767 92.4988Z" fill="#000000"/>
<path d="M41.6753 97.92V89.4494H38.6259V87.0776H47.6047V89.4494H44.5553V97.92H41.6753Z" fill="#000000"/>
<path d="M54.3812 89.1106C52.5176 89.1106 51.84 90.4659 51.6706 91.4824H57.0918C57.0918 90.4659 56.2447 89.1106 54.3812 89.1106ZM48.7906 92.4988C48.7906 89.28 51.1623 86.7388 54.3812 86.7388C57.6 86.7388 59.8023 89.1106 59.8023 92.8377V93.5153H51.6706C51.84 94.8706 53.0259 96.0565 54.8894 96.0565C55.7365 96.0565 57.0918 95.7177 57.7694 95.04L58.9553 96.9035C57.9388 97.92 56.0753 98.4282 54.3812 98.4282C51.3318 98.2588 48.7906 96.0565 48.7906 92.4988Z" fill="#000000"/>
<path d="M68.7812 97.92L66.24 94.1929L63.6988 97.92H60.48L64.3765 92.3294L60.8188 87.0776H64.0377L66.24 90.4659L68.4424 87.0776H71.6612L68.1035 92.3294L72 97.92H68.7812Z" fill="#000000"/>
<path d="M62.3435 33.5435V9.31765H38.287L47.6047 0H71.6612V24.0565L62.3435 33.5435Z" fill="#000000"/>
<path d="M71.6612 71.6612H47.6047L38.287 62.3435H62.3435V38.2871L71.6612 47.6047V71.6612Z" fill="#000000"/>
<path d="M0 24.0565V0H24.0565L33.5435 9.31765H9.48706V33.5435L0 24.0565Z" fill="#000000"/>
<path d="M0 47.6047L9.48706 38.2871V62.3435H33.3741L24.0565 71.6612H0V47.6047Z" fill="#000000"/>
</g>
<defs>
<clipPath id="clip0_1600_497">
<rect width="72" height="98.2588" fill="#000000"/>
</clipPath>
</defs>
</svg>
