<?xml version="1.0" encoding="utf-8"?>
<!-- Generator: Adobe Illustrator 25.2.3, SVG Export Plug-In . SVG Version: 6.00 Build 0)  -->
<svg version="1.1" id="Слой_1" xmlns="http://www.w3.org/2000/svg" xmlns:xlink="http://www.w3.org/1999/xlink" x="0px" y="0px"
	 viewBox="0 0 201 65" style="enable-background:new 0 0 201 65;" xml:space="preserve">
<style type="text/css">
	.st0{fill-rule:evenodd;clip-rule:evenodd;fill:#B2B2B2;}
</style>
<g>
	<path class="st0" d="M0.3,0.2c6.9-0.1,13.8-0.1,20.6,0c1.5,1.7,3.2,3.2,4.6,4.9c1,1.1,2.2,2.2,3.2,3.3c-6.9-0.1-13.7,0-20.6,0.1
		c0,6.6,0,13.2,0,19.8c0,0.5,0,1.1-0.1,1.6c-2.6-2.8-5.1-5.5-7.9-8.2c-0.1-3.1,0.1-6.2-0.1-9.2c0.1-0.3,0.1-0.6,0.1-0.9
		C0.3,7.8,0.3,4,0.3,0.2z"/>
	<path class="st0" d="M41,0.3c6.7,0.1,13.4,0.1,20.1,0.2c0,7,0,14.1,0,21.1c-2.7,2.7-5.1,5.6-7.9,8.2c0-7.1,0-14.1,0-21.2
		c-5.1,0-10.2-0.1-15.3-0.1c-1.6,0-3.3,0-4.9-0.1c1.3-1.1,2.4-2.5,3.6-3.7C38.1,3.2,39.5,1.7,41,0.3z"/>
	<path class="st0" d="M0.1,42.7c2.6-2.9,5.4-5.6,8.1-8.5c0.1,7.1,0,14.2,0,21.3c6.8,0,13.7-0.1,20.6-0.1c-2.6,2.9-5.3,5.6-8,8.4
		c-6.9,0.1-13.8,0.1-20.7,0C0.1,56.8,0.1,49.7,0.1,42.7z"/>
	<path class="st0" d="M53.2,34.1c2.7,2.6,5.1,5.6,7.9,8.2c0,7,0,14,0,21c-0.4,0.1-0.8,0.2-1.3,0.1c-6.4,0-12.7,0.2-19.1,0.1
		c-1.6-1.8-3.3-3.5-4.9-5.2c-1-1-2-2-2.8-3.1c6.7-0.1,13.5-0.1,20.2-0.1C53.2,48.2,53.2,41.2,53.2,34.1z"/>
	<g>
		<path class="st0" d="M81,64.2l0-26l13.6,0.1c4,0,6.6,4.2,6.9,7.8c0.3,4-2.5,7.9-6.4,8.9c-2.8,0.2-5.7,0.1-8.5,0.2l-0.1,9.1
			C84.7,64.3,82.9,64.3,81,64.2L81,64.2L81,64.2z M86.7,43.2l-0.1,6.8l5.4,0c0.4,0,0.9-0.1,1.3-0.1c1.6-0.3,2.7-1.8,2.7-3.3
			c0-1.4-1-3-2.6-3.3C91.1,43.3,88.9,43.3,86.7,43.2L86.7,43.2z M182.6,44.7h5.3l3.5,5l3.5-5h5.3l-6.2,8.9l6.8,9.8h-5.3l-4.1-6
			l-4.1,6h-5.3l6.8-9.8L182.6,44.7L182.6,44.7z M105.4,48.3c1-1.3,2.4-2.2,3.9-2.8c1.2-0.5,2.5-0.7,3.8-0.7c1.3,0,2.6,0.2,3.8,0.7
			c1.5,0.6,2.9,1.5,3.9,2.8c1.5,2,2,4,2,6.1c0.1,2.3-0.4,5-1.9,6.8c-1.3,1.6-3.2,2.9-5.3,3.3c-0.8,0.2-1.7,0.3-2.5,0.3
			c-0.9,0-1.7-0.1-2.5-0.3c-2.1-0.4-4-1.6-5.3-3.3c-1.5-1.8-2-4.5-1.9-6.8C103.5,52.3,103.9,50.4,105.4,48.3L105.4,48.3z
			 M113.2,49.4c-1.6,0.1-3.2,0.9-3.9,2.3c-1.4,2.6-0.9,6.6,1.7,8c0.7,0.3,1.5,0.5,2.3,0.5c0.8,0,1.6-0.2,2.3-0.5
			c2.5-1.4,3.1-5.5,1.7-8C116.3,50.2,114.8,49.4,113.2,49.4L113.2,49.4z M146,45.1l15-0.1l0,4.5l-4.9,0.1L156,63.9l-5.1,0.1
			l0.1-14.4l-5-0.1L146,45.1L146,45.1z M128.1,48.3c3.6-4.5,11.6-4.9,15-0.1l-3.4,3c-1.7-2.8-6.4-2.5-7.8,0.4
			c-1.8,3.1-0.5,8.5,3.7,8.5c1.6,0,3.2-0.5,4.2-2l3.2,3c-2.2,3.1-6.4,4.1-9.7,3.2c-2.1-0.4-4-1.6-5.3-3.3c-1.5-1.8-2-4.5-1.9-6.8
			C126.1,52.3,126.6,50.4,128.1,48.3L128.1,48.3z M172.8,44.4c1.2,0.1,2.3,0.4,3.4,0.9c3.8,1.8,5.3,6.5,4.8,10.4L167.8,56
			c0.2,2.1,1.5,3.4,3.4,3.9c2.2,0.6,4.7-0.1,6.5-1.7c0.7,1,1.4,2.1,2.1,3.1c-2.4,2.1-5.7,3-8.9,2.8c-1.4-0.2-2.9-0.7-4.2-1.5
			c-3.1-1.9-4-4.8-3.9-8.2C162.8,48.4,166.7,44.1,172.8,44.4L172.8,44.4z M167.9,52.7l8.7-0.2c-0.4-2.3-1.7-4.1-4.4-4
			C169.7,48.5,167.7,50.1,167.9,52.7z"/>
	</g>
</g>
</svg>
