<?xml version="1.0" encoding="utf-8"?>
<!-- Generator: Adobe Illustrator 25.2.3, SVG Export Plug-In . SVG Version: 6.00 Build 0)  -->
<svg version="1.1" id="Слой_1" xmlns="http://www.w3.org/2000/svg" xmlns:xlink="http://www.w3.org/1999/xlink" x="0px" y="0px"
	 viewBox="0 0 240 65" style="enable-background:new 0 0 240 65;" xml:space="preserve">
<style type="text/css">
	.st0{fill:#CBCBCB;}
	.st1{fill:#989898;}
</style>
<g>
	<g>
		<path class="st0" d="M215.6,52.5h12.5V45l2.6,0.9v9.8h-15.1V52.5z"/>
		<path class="st0" d="M215.6,38.6V35l15.1-5.3v3.4l-3.1,1v5.6l3.1,1.1V44L215.6,38.6z M219,36.9l6,1.9v-4L219,36.9L219,36.9z"/>
		<path class="st0" d="M230.7,27.8h-15.1v-7.4c0-0.9,0.1-1.6,0.4-2.3c0.3-0.6,0.6-1.1,1-1.4c0.4-0.3,0.8-0.6,1.2-0.7
			c0.4-0.1,0.8-0.2,1.3-0.2c0.7,0,1.2,0.1,1.7,0.4c0.5,0.2,0.8,0.5,0.9,0.7c0.2,0.2,0.3,0.5,0.5,0.8c0.6-1.5,1.8-2.3,3.6-2.3
			c0.3,0,0.7,0,1,0.1c0.3,0.1,0.7,0.2,1.2,0.4c0.5,0.2,0.8,0.6,1.2,1c0.3,0.4,0.6,1,0.9,1.8c0.2,0.8,0.4,1.7,0.4,2.8V27.8z
			 M218.2,24.6h3.3V21c0-0.7-0.1-1.2-0.4-1.6c-0.3-0.4-0.7-0.6-1.3-0.6c-0.6,0-1,0.2-1.2,0.6c-0.2,0.4-0.4,1-0.4,1.7V24.6z
			 M224,24.6h4.1v-3.8c0-1.6-0.7-2.4-2.2-2.4c-0.6,0-1.1,0.2-1.4,0.7c-0.3,0.4-0.5,1-0.5,1.6V24.6z"/>
	</g>
	<polygon class="st1" points="63.4,55.7 63.4,15.4 43.8,15.4 43.8,55.7 49.6,55.7 49.6,20.6 57.5,20.6 57.5,55.7 	"/>
	<polygon class="st1" points="88.5,55.7 88.5,15.4 81,15.4 73.8,42 73.8,15.4 68.7,15.4 68.7,55.7 74.8,55.7 83.3,24 83.3,55.7 	"/>
	<polygon class="st1" points="113.4,55.7 113.4,15.4 107.5,15.4 107.5,33 99.6,33 99.6,15.4 93.8,15.4 93.8,55.7 99.6,55.7 
		99.6,38.2 107.5,38.2 107.5,55.7 	"/>
	<path class="st1" d="M169.1,15.4v30.9c0,1.7-0.4,2.8-1.2,3.4c-0.7,0.5-1.6,0.8-2.8,0.8H164c-0.1,0-0.1,0-0.2,0h-10.6V37.9h8.8v-5.2
		h-8.8v-12h11.1v-5.2h-16.9v40.3h15.8h2.8h0.4v0c1,0,2-0.1,3-0.3c1.1-0.3,2-0.8,2.8-1.5c0.8-0.7,1.5-1.7,2-3c0.5-1.3,0.7-3,0.7-5
		V20.6h8.1v35.1h5.8V15.4H169.1z"/>
	<path class="st1" d="M210.2,53.2c1.5-1.6,2.3-4.1,2.3-7.3v-5.3c0-3.2-0.8-5.7-2.3-7.3c-1.5-1.6-3.9-2.5-7-2.5h-3.4V15.4h-5.8v40.3
		h9.2C206.4,55.7,208.7,54.9,210.2,53.2z M199.9,36h3.4c1.1,0,2,0.3,2.6,0.9c0.6,0.6,0.9,1.7,0.9,3.3v6.1c0,1.6-0.3,2.6-0.9,3.3
		c-0.6,0.6-1.5,0.9-2.6,0.9h-3.4V36z"/>
	<path class="st1" d="M138.2,60.4h5.9v-9.9h-3.3V15.4h-20.2v35.1h-3.3v9.9h5.9v-4.7h14.9V60.4z M135.1,50.5h-8.6V20.6h8.6V50.5z"/>
	<polygon class="st0" points="38.4,4.6 23.9,4.6 9.3,4.6 9.3,13.6 16.7,17.9 16.7,26.1 21,28.6 21,36.4 23.9,38.1 26.7,36.4 
		26.7,28.6 31,26.1 31,17.9 38.4,13.6 	"/>
	<g>
		<polygon class="st1" points="32.6,18.8 32.6,26.1 32.6,27 32.6,27 32.6,50.5 26.7,50.5 26.7,38.2 24.6,39.4 23.9,39.9 23.1,39.4 
			21,38.2 21,50.5 15.1,50.5 15.1,18.8 9.3,15.5 9.3,55.7 38.4,55.7 38.4,15.4 38.4,15.4 		"/>
	</g>
</g>
</svg>
